<svg t="1711365388218" class="icon" viewBox="0 0 1024 1024" version="1.1" xmlns="http://www.w3.org/2000/svg" p-id="1406" width="200" height="200"><path d="M906.8 768.288c-44.528 10.56-67.056 20.32-122.16 56.208-86.256 55.648-180.32 81.536-180.32 81.536s-7.776 11.68-30.32 16.96c-38.96 9.472-185.6 17.536-198.96 17.808-35.904 0.288-57.872-9.168-64-23.92-18.64-44.528 26.72-64 26.72-64s-10.016-6.128-15.872-11.68c-5.28-5.28-10.848-15.872-12.512-11.968-6.96 16.96-10.576 58.432-29.216 77.072-25.6 25.872-74.032 17.248-102.688 2.24-31.44-16.704 2.24-55.936 2.24-55.936s-16.976 10.016-30.624-10.576c-12.24-18.928-23.648-51.2-20.592-90.992 3.904-45.92 54.56-89.888 54.56-89.888s-8.912-67.04 20.304-135.792c26.432-62.608 97.664-112.96 97.664-112.96s-59.824-65.952-37.552-125.776c14.464-38.96 20.304-38.688 25.04-40.352 16.688-6.4 32.832-13.36 44.8-26.432 59.824-64.56 136.064-52.32 136.064-52.32s35.616-109.344 69.008-87.92c10.288 6.672 47.296 89.04 47.296 89.04s39.52-23.104 43.968-14.464c23.936 46.464 26.72 135.232 16.144 189.216-17.808 89.04-62.336 136.896-80.144 166.944-4.16 6.96 47.872 28.96 80.704 119.936 30.32 83.2 3.344 153.056 8.064 160.832 0.832 1.392 1.12 1.952 1.12 1.952s34.784 2.784 104.624-40.352c37.28-23.088 81.536-48.96 131.888-49.52 48.704-0.832 51.2 56.48 14.752 65.12v-0.016z" fill="#2C8EBB" p-id="1407"></path></svg>
