<svg t="1720442414862" class="icon" viewBox="0 0 1024 1024" version="1.1" xmlns="http://www.w3.org/2000/svg"
     p-id="10022" xmlns:xlink="http://www.w3.org/1999/xlink" width="250" height="250">
    <path d="M44.49054 116.249474h696.779257v843.167485H44.49054V116.249474z" fill="#29BE96" p-id="10023"></path>
    <path d="M704.67274 871.871058s150.693763-50.231254 312.151367-50.231254c112.661528 0 223.887877 18.657323 330.0911 55.25438 0 0 3.587947 108.355992 0.717589 138.494744-14.351787 7.893483-147.823406-109.073581-330.808689-111.226349-161.457603-1.435179-312.151367 78.934828-312.151367 78.934828v-111.226349z"
          fill="#08946E" p-id="10024"></path>
    <path d="M704.67274 116.249474s150.693763-101.180098 311.433777-101.180098c185.855641 0 348.748423 165.04555 348.748423 165.04555v806.570428s-162.892782-128.448493-348.030833-128.448493c-161.457603 0-312.151367 101.180098-312.151367 101.180098V116.249474z"
          fill="#F1F0EC" p-id="10025"></path>
    <path d="M7.893483 162.175193l45.925718-45.925719v825.227751l-45.925718 45.925718v-825.22775z" fill="#EB4545"
          p-id="10026"></path>
    <path d="M741.269797 941.477225l-18.657323 45.925718H7.893483l27.268395-45.925718h706.107919zM117.684653 254.026629h155.716889v36.597057H117.684653v-36.597057zM117.684653 510.206027h155.716889v36.597056H117.684653v-36.597056zM117.684653 327.220743h412.613875v36.597057H117.684653v-36.597057zM117.684653 400.414856h412.613875v36.597057H117.684653v-36.597057z"
          fill="#EB4545" p-id="10027"></path>
    <path d="M823.792572 208.100911s81.805186-45.925718 178.679748-45.925718c109.073581 0 233.934128 45.925718 233.934127 45.925718v36.597057s-125.578136-45.925718-234.651717-45.925719c-96.156973 0-177.962158 45.925718-177.962158 45.925719V208.100911zM823.792572 299.952348s81.805186-45.925718 178.679748-45.925719c109.073581 0 233.934128 45.925718 233.934127 45.925719v36.597056s-125.578136-45.925718-234.651717-45.925718c-96.156973 0-177.962158 45.925718-177.962158 45.925718v-36.597056zM823.792572 391.086195s81.805186-45.925718 178.679748-45.925718c109.073581 0 233.934128 45.925718 233.934127 45.925718v36.597057s-125.578136-45.925718-234.651717-45.925719c-96.156973 0-177.962158 45.925718-177.962158 45.925719v-36.597057zM823.792572 482.937631s81.805186-45.925718 178.679748-45.925718c109.073581 0 233.934128 45.925718 233.934127 45.925718v36.597057S1110.828311 473.60897 1001.75473 473.60897c-96.156973 0-177.962158 45.925718-177.962158 45.925718v-36.597057zM823.792572 574.789068s81.805186-45.925718 178.679748-45.925718c109.073581 0 233.934128 45.925718 233.934127 45.925718v36.597057s-125.578136-45.925718-234.651717-45.925719c-96.156973 0-177.962158 45.925718-177.962158 45.925719v-36.597057zM823.792572 666.640505s81.805186-45.925718 178.679748-45.925719c109.073581 0 233.934128 45.925718 233.934127 45.925719V703.237561s-125.578136-45.925718-234.651717-45.925718c-96.156973 0-177.962158 45.925718-177.962158 45.925718v-36.597056z"
          fill="#EB4545" p-id="10028"></path>
</svg>
