<?xml version="1.0" standalone="no"?><!DOCTYPE svg PUBLIC "-//W3C//DTD SVG 1.1//EN" "http://www.w3.org/Graphics/SVG/1.1/DTD/svg11.dtd"><svg t="1732717549424" class="icon" viewBox="0 0 1024 1024" version="1.1" xmlns="http://www.w3.org/2000/svg" p-id="4303" xmlns:xlink="http://www.w3.org/1999/xlink" width="200" height="200"><path d="M750.445714 24.380952a143.36 143.36 0 0 0-27.306666 283.794286 243.809524 243.809524 0 0 1-35.108572 97.52381 160.426667 160.426667 0 0 1-126.293333 65.340952 379.367619 379.367619 0 0 0-247.222857 97.52381V304.761905a142.872381 142.872381 0 1 0-82.895238 0v413.988571a143.36 143.36 0 1 0 185.295238 137.020953 140.434286 140.434286 0 0 0-97.52381-135.070477 180.419048 180.419048 0 0 0-3.413333 23.405715v-24.868572h3.413333c12.190476-57.051429 62.415238-155.062857 250.148572-170.666666a239.420952 239.420952 0 0 0 186.758095-100.449524 330.118095 330.118095 0 0 0 48.761905-150.186667A142.872381 142.872381 0 0 0 750.445714 24.380952zM335.481905 856.259048a62.415238 62.415238 0 1 1-81.432381-59.489524h5.851428l7.801905-2.438095h19.992381a59.977143 59.977143 0 0 1 47.786667 61.927619z m-48.761905-628.053334H273.066667a52.175238 52.175238 0 0 1-12.190477 0 61.927619 61.927619 0 1 1 74.605715-59.977143 61.44 61.44 0 0 1-48.761905 59.977143z m478.354286 0h-25.356191a61.927619 61.927619 0 0 1 10.727619-122.88 61.927619 61.927619 0 0 1 14.628572 122.392381z" fill="#7AC943" p-id="4304"></path><path d="M510.049524 499.321905v25.35619a122.392381 122.392381 0 0 1 3.900952-23.405714z" fill="#7AC943" p-id="4305"></path><path d="M513.950476 501.272381a122.392381 122.392381 0 0 0-3.900952 23.405714v-25.35619z" fill="#7AC943" p-id="4306"></path></svg>