<svg t="1731561182579" class="icon" viewBox="0 0 1024 1024" version="1.1" xmlns="http://www.w3.org/2000/svg" p-id="1659"
     width="220" height="220">
    <path d="M0 513.362306c0 281.543237 229.321508 508.594235 510.864745 508.594235S1021.72949 794.905543 1021.72949 513.362306C1021.72949 231.819069 792.407982 2.497561 510.864745 2.497561S0 231.819069 0 513.362306"
          fill="#9AF4EF" p-id="1660"></path>
    <path d="M0 513.362306c0 281.543237 229.321508 508.594235 510.864745 508.594235S1021.72949 794.905543 1021.72949 513.362306C1021.72949 231.819069 792.407982 2.497561 510.864745 2.497561S0 231.819069 0 513.362306"
          fill="#9AF4EF" p-id="1661"></path>
    <path d="M1021.72949 513.135255c0-138.501109-56.762749-265.649667-147.583149-358.740577l-4.541019-4.541019c-29.51663 11.35255-52.221729 36.32816-59.03326 68.115299h-2.27051c-47.68071 0-88.549889 31.78714-102.172949 74.926829-6.81153-2.27051-15.89357-2.27051-22.7051-2.27051-49.95122 0-90.820399 40.86918-90.820399 90.820399l49.95122 161.206209s256.567627-2.27051 376.904656-4.54102c0-11.35255 2.27051-18.16408 2.27051-24.97561"
          fill="#C5F8F1" p-id="1662"></path>
    <path d="M603.955654 381.672727v-6.81153c0-65.844789-52.221729-118.066519-118.066519-118.066519h-15.89357c-24.97561-49.95122-77.197339-86.279379-136.230598-86.279379-61.303769 0-113.525499 36.32816-138.501109 88.549889-22.7051-22.7051-54.492239-38.59867-90.820399-38.598669H90.820399C34.05765 306.745898 0 406.648337 0 513.362306v9.08204c13.62306 4.54102 665.259424-11.35255 665.259424-11.35255 4.54102-11.35255 6.81153-22.7051 6.811529-34.05765 0-43.13969-27.24612-81.738359-68.115299-95.361419"
          fill="#DEFBF2" p-id="1663"></path>
    <path d="M233.862528 726.563193h551.733924c20.43459 0 38.59867-15.89357 38.59867-38.59867V336.035477c0-20.43459-15.89357-38.59867-38.59867-38.59867H233.862528c-20.43459 0-38.59867 15.89357-38.59867 38.59867v354.199556c2.27051 20.43459 18.16408 36.32816 38.59867 36.32816"
          fill="#F26E64" p-id="1664"></path>
    <path d="M197.534368 490.430155h626.660754v-115.796009H197.534368z" fill="#455A64" p-id="1665"></path>
    <path d="M647.095344 572.168514H726.563193c11.35255 0 20.43459 9.08204 20.43459 20.43459s-9.08204 20.43459-20.43459 20.43459h-77.197339c-11.35255 0-20.43459-9.08204-20.43459-20.43459 0-13.62306 9.08204-20.43459 18.16408-20.43459"
          fill="#FAFAFA" p-id="1666"></path>
    <path d="M472.266075 835.547672c-68.115299 81.738359-43.13969 131.689579 13.62306 79.467849 97.631929-93.090909 217.968958-188.452328 286.084257-190.722838l-131.689578 2.27051c-59.033259 6.81153-104.443459 31.78714-168.017739 108.984479"
          fill="#79CEEA" p-id="1667"></path>
    <path d="M640.283814 724.292683c-38.59867 0-208.886918-63.574279-317.871397-63.574279-79.467849 0-188.452328 18.16408-292.895787 27.246119 70.385809 195.263858 258.838137 333.764967 479.077605 333.764967 233.862528 0 431.396896-156.665188 490.430155-370.093126-81.738359 9.08204-88.549889 70.385809-199.804878 70.385809l-158.935698 2.27051z"
          fill="#94D75B" p-id="1668"></path>
    <path d="M672.070953 796.949002c22.7051-79.467849-84.008869 13.62306-86.279379 22.7051-2.27051 4.54102-49.95122 97.631929-102.172949 202.075388h27.24612c97.631929 0 190.722838-27.24612 267.920177-74.926829-56.762749-49.95122-122.607539-95.361419-106.713969-149.853659"
          fill="#71BE63" p-id="1669"></path>
    <path d="M556.274945 742.456763c-104.443459 18.16408-229.321508 65.844789-383.716187 22.7051-31.78714-9.08204-77.197339-15.89357-115.796009-15.89357 52.221729 99.902439 138.501109 181.640798 245.215078 227.050997l190.722838-34.057649 63.57428-199.804878z"
          fill="#71BE63" p-id="1670"></path>
    <path d="M202.075388 817.383592c-9.08204 0-15.89357 6.81153-20.43459 13.62306-4.54102-11.35255-15.89357-20.43459-27.24612-20.43459-13.62306 0-24.97561 9.08204-27.246119 20.43459-4.54102-9.08204-9.08204-13.62306-18.16408-18.16408-2.27051-13.62306-13.62306-24.97561-29.51663-27.24612 22.7051 34.05765 47.68071 65.844789 77.197339 93.090909 61.303769-11.35255 115.796009-29.51663 152.124169-49.951219 0 0-38.59867 6.81153-84.008869 6.81153-2.27051-9.08204-11.35255-18.16408-22.7051-18.16408"
          fill="#43AB5F" p-id="1671"></path>
    <path d="M510.864745 1021.72949c31.78714 0 61.303769-2.27051 93.090909-9.08204 38.59867-111.254989 65.844789-224.780488 86.279379-247.485587 0 0-140.771619 140.771619-249.756097 252.026607 20.43459 2.27051 45.4102 4.54102 70.385809 4.54102"
          fill="#FFEFC6" p-id="1672"></path>
    <path d="M556.274945 742.456763c-81.738359 27.24612-211.157428 127.148559-367.822617 165.747228 43.13969 34.05765 90.820399 61.303769 143.042129 81.738359l54.492239-9.08204 181.640798-215.698447-11.352549-22.7051z"
          fill="#FFEFC6" p-id="1673"></path>
    <path d="M633.472284 724.292683c-154.394678 13.62306-217.968958 156.665188-388.257206 224.780488 77.197339 47.68071 168.017738 72.656319 265.649667 72.656319h29.51663c84.008869-145.312639 111.254989-297.436807 263.379157-297.436807l-161.206208 2.27051c-4.54102-2.27051-6.81153-2.27051-9.08204-2.27051"
          fill="#57B9E7" p-id="1674"></path>
    <path d="M483.618625 1021.72949h56.76275c31.78714-56.762749 56.762749-113.525499 81.738359-163.476718-15.89357 27.24612-65.844789 97.631929-138.501109 163.476718"
          fill="#3C9BD4" p-id="1675"></path>
    <path d="M277.002217 964.966741c93.090909-59.033259 161.206208-143.042129 208.886918-181.640799-70.385809 52.221729-136.230599 122.607539-240.674057 163.476719 11.35255 6.81153 20.43459 13.62306 31.787139 18.16408"
          fill="#3C9BD4" p-id="1676"></path>
    <path d="M622.119734 858.252772l2.27051-2.27051-2.27051 2.27051" fill="#3C9BD4" p-id="1677"></path>
    <path d="M801.490022 722.022173H794.678492c22.7051 9.08204 52.221729 15.89357 81.738359 9.08204 45.4102-6.81153 77.197339-11.35255 97.631929-11.35255 9.08204-22.7051 18.16408-45.4102 24.97561-70.385809-79.467849 11.35255-86.279379 72.656319-197.534368 72.656319"
          fill="#B0EB81" p-id="1678"></path>
</svg>
